<svg xmlns="http://www.w3.org/2000/svg" viewBox="0 0 800 600" fill="none">
  <defs>
    <linearGradient id="bgGrad" x1="0%" y1="0%" x2="100%" y2="100%">
      <stop offset="0%" stop-color="#EFF6FF"/>
      <stop offset="50%" stop-color="#DBEAFE"/>
      <stop offset="100%" stop-color="#BFDBFE"/>
    </linearGradient>
    <linearGradient id="blueCard" x1="0%" y1="0%" x2="100%" y2="100%">
      <stop offset="0%" stop-color="#003896"/>
      <stop offset="100%" stop-color="#00225D"/>
    </linearGradient>
    <filter id="dropShadow" x="-10%" y="-10%" width="120%" height="130%">
      <feDropShadow dx="0" dy="16" stdDeviation="20" flood-color="#003896" flood-opacity="0.18"/>
    </filter>
  </defs>

  <rect width="800" height="600" rx="32" fill="url(#bgGrad)"/>
  <circle cx="650" cy="150" r="140" fill="#9CD41C" opacity="0.25"/>
  <circle cx="200" cy="450" r="180" fill="#003896" opacity="0.12"/>
  
  <!-- Smartphone Frame -->
  <g transform="translate(420, 80)" filter="url(#dropShadow)">
    <rect width="300" height="460" rx="36" fill="#0F172A"/>
    <rect x="10" y="10" width="280" height="440" rx="28" fill="#FFFFFF"/>
    <rect x="90" y="18" width="120" height="18" rx="9" fill="#0F172A"/>
    
    <rect x="22" y="46" width="256" height="120" rx="18" fill="url(#blueCard)"/>
    <text x="38" y="76" font-family="Montserrat, sans-serif" font-size="12" font-weight="700" fill="#9CD41C">MUTUUS SALUD</text>
    <text x="38" y="98" font-family="Montserrat, sans-serif" font-size="16" font-weight="800" fill="#FFFFFF">Credencial Digital</text>
    <text x="38" y="122" font-family="Montserrat, sans-serif" font-size="11" font-weight="500" fill="#DBEAFE">Titular: Activo · Deducible $0</text>
    <circle cx="240" cy="74" r="10" fill="#22C55E"/>
    <path d="M236 74L239 77L245 71" stroke="#FFFFFF" stroke-width="2" stroke-linecap="round"/>

    <rect x="22" y="180" width="120" height="80" rx="14" fill="#F4F9FF" stroke="#CBD5E1"/>
    <circle cx="48" cy="208" r="16" fill="#003896"/>
    <path d="M42 208H54M48 202V214" stroke="#9CD41C" stroke-width="2.5" stroke-linecap="round"/>
    <text x="34" y="244" font-family="Montserrat, sans-serif" font-size="10" font-weight="700" fill="#003896">Médico 24/7</text>

    <rect x="158" y="180" width="120" height="80" rx="14" fill="#F4F9FF" stroke="#CBD5E1"/>
    <circle cx="184" cy="208" r="16" fill="#003896"/>
    <path d="M178 204H190V214H178Z" stroke="#FFFFFF" stroke-width="2" fill="none"/>
    <text x="170" y="244" font-family="Montserrat, sans-serif" font-size="10" font-weight="700" fill="#003896">Hospitales</text>

    <rect x="22" y="275" width="256" height="60" rx="14" fill="#EFF6FF" stroke="#93C5FD"/>
    <text x="38" y="300" font-family="Montserrat, sans-serif" font-size="12" font-weight="800" fill="#003896">Pago Directo en Red</text>
    <text x="38" y="318" font-family="Montserrat, sans-serif" font-size="10" font-weight="500" fill="#475569">115+ Hospitales sin deducible</text>
  </g>

  <!-- Doctor Card -->
  <g transform="translate(80, 140)">
    <rect width="300" height="340" rx="24" fill="#FFFFFF" filter="url(#dropShadow)"/>
    <circle cx="150" cy="90" r="50" fill="#003896"/>
    <path d="M135 75C135 65 165 65 165 75V105C165 115 135 115 135 105" stroke="#9CD41C" stroke-width="4" stroke-linecap="round" fill="none"/>
    <circle cx="150" cy="115" r="8" fill="#9CD41C"/>
    <text x="150" y="175" text-anchor="middle" font-family="Montserrat, sans-serif" font-size="18" font-weight="800" fill="#003896">Dra. Claudia Ortiz</text>
    <text x="150" y="198" text-anchor="middle" font-family="Montserrat, sans-serif" font-size="12" font-weight="600" fill="#64748B">Médico Especialista Mutuus</text>
    
    <rect x="40" y="225" width="220" height="44" rx="22" fill="#EBFFF0" stroke="#86EFAC"/>
    <circle cx="65" cy="247" r="10" fill="#22C55E"/>
    <path d="M61 247L64 250L70 244" stroke="#FFFFFF" stroke-width="2" stroke-linecap="round"/>
    <text x="85" y="252" font-family="Montserrat, sans-serif" font-size="11" font-weight="700" fill="#15803D">Disponible para Consulta</text>
    <text x="150" y="305" text-anchor="middle" font-family="Montserrat, sans-serif" font-size="11" font-weight="500" fill="#64748B">Tiempo de espera: &lt; 2 minutos</text>
  </g>
</svg>