<svg xmlns="http://www.w3.org/2000/svg" viewBox="0 0 140 42" fill="none">
  <rect width="140" height="42" rx="8" fill="#000000"/>
  <path d="M26.5 24.2C26.5 20.8 29.2 19.1 29.3 19C27.7 16.7 25.3 16.4 24.5 16.3C22.5 16.1 20.5 17.5 19.5 17.5C18.4 17.5 16.8 16.3 15.2 16.3C13.1 16.3 11.2 17.5 10.1 19.4C7.9 23.3 9.6 29 11.7 32.1C12.8 33.6 14 35.3 15.6 35.2C17.2 35.1 17.8 34.2 19.8 34.2C21.7 34.2 22.3 35.2 23.9 35.2C25.6 35.2 26.7 33.7 27.7 32.1C28.9 30.4 29.4 28.8 29.5 28.6C29.4 28.5 26.5 27.4 26.5 24.2Z" fill="#FFFFFF"/>
  <path d="M22.8 14.5C23.7 13.4 24.3 11.9 24.1 10.3C22.8 10.4 21.2 11.2 20.3 12.3C19.5 13.2 18.9 14.8 19.1 16.3C20.6 16.4 22 15.6 22.8 14.5Z" fill="#FFFFFF"/>
  <text x="38" y="16" font-family="system-ui, sans-serif" font-size="8" fill="#FFFFFF" font-weight="400">Consíguelo en el</text>
  <text x="38" y="28" font-family="system-ui, sans-serif" font-size="13" fill="#FFFFFF" font-weight="700">App Store</text>
</svg>